<?xml version='1.0' standalone='no'?>
<svg xmlns='http://www.w3.org/2000/svg' version ='1.1' width='1440' height='400'>
<polygon points="-456.025255745928,-612 2356.82525574593,-612.000000000001 950.400000000001,1824" style="fill:#215EA7;fill-opacity:1"/>
<polygon points="-460.719683281448,-537.715542642058 2294.84024233537,-653.207722180957 1017.07944094608,1790.92326482301" style="fill:#215EA7;fill-opacity:1"/>
<polygon points="-461.709291160569,-464.488193588114 2231.91830174242,-690.678422271032 1080.99098941815,1755.16661585915" style="fill:#215EA7;fill-opacity:1"/>
<polygon points="-459.091884252754,-392.495831061807 2168.26238346228,-724.407862659977 1142.02950079048,1716.90369372178" style="fill:#215EA7;fill-opacity:1"/>
<polygon points="-452.973577226419,-321.909955014007 2104.07406814333,-754.402191370919 1200.09950908309,1676.31214638493" style="fill:#215EA7;fill-opacity:1"/>
<polygon points="-443.468430282177,-252.895306955923 2039.55305621967,-780.677816679543 1255.11537406251,1633.57312363547" style="fill:#215EA7;fill-opacity:1"/>
<polygon points="-430.698067782498,-185.609509176642 1974.89666477907,-803.261257228926 1307.00140300343,1588.87076640557" style="fill:#215EA7;fill-opacity:1"/>
<polygon points="-414.79128076486,-120.202724103966 1910.29933381744,-822.1889681154 1355.69194694742,1542.39169221937" style="fill:#215EA7;fill-opacity:1"/>
<polygon points="-395.883614358711,-56.8173345186104 1845.95214300468,-837.507143474072 1401.13147135403,1494.32447799268" style="fill:#215EA7;fill-opacity:1"/>
<polygon points="-374.116941157486,4.41235471835876 1782.04234005902,-849.271496144421 1443.27460109846,1444.85914142606" style="fill:#215EA7;fill-opacity:1"/>
<polygon points="-349.639021625407,63.3603928165236 1718.75288179672,-857.547015046932 1482.08613982869,1394.18662223041" style="fill:#215EA7;fill-opacity:1"/>
<polygon points="-322.603052644829,119.90943652997 1656.26198889087,-862.407700950547 1517.54106375396,1342.49826442058" style="fill:#215EA7;fill-opacity:1"/>
<polygon points="-293.167205333352,173.950980452286 1594.74271533867,-863.936281358045 1549.62448999468,1289.98530090576" style="fill:#2461A9;fill-opacity:1"/>
<polygon points="-261.494153280869,225.38556368581 1534.36253359914,-862.22390528197 1578.33161968173,1236.83834159616" style="fill:#2867AB;fill-opacity:1"/>
<polygon points="-227.750592375006,274.122952493964 1475.28293632422,-857.369818727422 1603.66765605078,1183.24686623346" style="fill:#2C6EAD;fill-opacity:1"/>
<polygon points="-192.106753399072,320.082298601881 1417.65905556548,-849.48102173982 1625.64769783359,1129.39872313794" style="fill:#2F74AF;fill-opacity:1"/>
<polygon points="-154.735908599613,363.192272867642 1361.63930029511,-838.671907915484 1644.29660830451,1075.47963504784" style="fill:#327BB2;fill-opacity:1"/>
<polygon points="-115.813873430948,403.391174103929 1307.36501303593,-825.063887310572 1659.64886039502,1021.67271320664" style="fill:#3582B4;fill-opacity:1"/>
<polygon points="-75.5185046916213,440.627012887805 1254.97014634821,-808.784993719391 1671.74835834342,968.157980831586" style="fill:#3789B6;fill-opacity:1"/>
<polygon points="-34.0291962725504,474.857570254451 1204.58095987345,-789.969477326351 1680.6482363991,915.1119070719" style="fill:#3990B8;fill-opacity:1"/>
<polygon points="8.47362626128006,506.050431228948 1156.31573858591,-768.757383766761 1686.41063515281,862.706952537813" style="fill:#3B97BA;fill-opacity:1"/>
<polygon points="51.8090110343339,534.182993208371 1110.28453285166,-745.294120660235 1689.10645611401,811.111127451863" style="fill:#3D9EBC;fill-opacity:1"/>
<polygon points="95.7959839513966,559.242449264558 1066.58892084345,-719.730012706574 1688.81509520515,760.487563442016" style="fill:#3EA5BF;fill-opacity:1"/>
<polygon points="140.254050304025,581.225746495704 1025.32179380602,-692.219846457636 1685.62415588995,710.994099961932" style="fill:#3FACC1;fill-opacity:1"/>
<polygon points="185.003692689585,600.139519612322 986.567164612835,-662.922405899782 1679.62914269758,662.782886287459" style="fill:#40B3C3;fill-opacity:1"/>
<polygon points="229.866864051347,616 950.4,-632 1670.93313594865,616" style="fill:#48B7C3;fill-opacity:1"/>
<polygon points="274.667474662228,628.832900557591 916.886076807447,-599.617983384718 1659.64644853033,570.785082827127" style="fill:#52BAC2;fill-opacity:1"/>
<polygon points="319.23187189147,638.673276664962 886.081862501049,-565.944271333539 1645.88626560748,527.270994668577" style="fill:#5CBDC0;fill-opacity:1"/>
<polygon points="363.389311612888,645.565363688976 858.03442019245,-531.148850280718 1629.77626819466,485.583486591741" style="fill:#64C0BF;fill-opacity:1"/>
<polygon points="406.972420135092,649.562391489956 832.781338316067,-495.403285025086 1611.44624154884,445.840893535129" style="fill:#6CC2BE;fill-opacity:1"/>
<polygon points="449.817645558427,650.726376443327 810.350685065157,-458.880223854291 1591.03166937642,408.153847410964" style="fill:#73C5BD;fill-opacity:1"/>
<polygon points="491.765697490111,649.12789154234 790.760987631136,-421.752902791691 1568.67331487875,372.625011249351" style="fill:#7AC8BC;fill-opacity:1"/>
<polygon points="532.661974078077,644.845815197642 774.021236232606,-384.194650173969 1544.51678968932,339.348834976326" style="fill:#81CBBA;fill-opacity:1"/>
<polygon points="572.356975355485,637.96705939788 760.130912862925,-346.378392764597 1518.71211178159,308.411333366717" style="fill:#87CEB9;fill-opacity:1"/>
<polygon points="610.706701921398,628.586277942355 749.080044627803,-308.476164602567 1491.4132534508,279.889886660211" style="fill:#8ED0B8;fill-opacity:1"/>
<polygon points="647.573038018918,616.805555501973 740.849281487348,-270.658619777468 1462.77768049373,253.853064275495" style="fill:#94D3B6;fill-opacity:1"/>
<polygon points="682.824118109858,602.734078308147 735.409998160504,-233.094550310961 1432.96588372964,230.360472002813" style="fill:#9AD6B5;fill-opacity:1"/>
<polygon points="716.334676084845,586.487787310923 732.724419893881,-195.950410311019 1402.14090402127,209.462623000096" style="fill:#9FD9B4;fill-opacity:1"/>
<polygon points="747.986376289423,568.18901468723 732.745771741786,-159.389847549038 1370.46785196879,191.200832861808" style="fill:#A7DCB5;fill-opacity:1"/>
<polygon points="777.668125590239,547.966104617807 735.418450949946,-123.573243591059 1338.11342345982,175.607138973252" style="fill:#AEDFB7;fill-opacity:1"/>
<polygon points="805.276365750555,525.95301928688 740.678221982046,-88.6572635929812 1305.2454122674,162.704244306101" style="fill:#B6E2B9;fill-opacity:1"/>
<polygon points="830.715345431158,502.288931091988 748.452433675916,-54.794416845777 1272.03222089293,152.505485753789" style="fill:#BDE5BB;fill-opacity:1"/>
<polygon points="853.89737118103,477.117802082486 758.660257965144,-22.1326291304514 1238.64237085383,145.014827047965" style="fill:#C5E8BC;fill-opacity:1"/>
<polygon points="874.743036831815,450.587951673994 771.212949552106,9.18517208617141 1205.24401361608,140.226876239835" style="fill:#CCEABE;fill-opacity:1"/>
<polygon points="893.18143076111,422.851613712475 786.014125870085,39.0214586146849 1172.00444336881,138.12692767284" style="fill:#D3EDC0;fill-opacity:1"/>
<polygon points="909.150320541757,394.064483985587 802.960066625285,67.2444876984026 1139.08961283296,138.69102831601" style="fill:#DBF0C2;fill-opacity:1"/>
<polygon points="922.596314547491,364.385259300395 821.94003216442,93.7286724290985 1106.66365328809,141.886068270507" style="fill:#E2F3C4;fill-opacity:1"/>
<polygon points="933.475000139476,333.975169265507 842.836599870013,118.354935528985 1074.88839999051,147.669895205508" style="fill:#E9F6C6;fill-opacity:1"/>
<polygon points="941.751058113172,302.997501932029 865.52601774394,141.011045644137 1043.92292414289,155.991452423834" style="fill:#F0F9C8;fill-opacity:1"/>
<polygon points="947.398353140691,271.617124461486 889.878574300016,161.591935335906 1013.92307255929,166.790940202608" style="fill:#F7FCCA;fill-opacity:1"/>
<polygon points="950.4,240 915.758983848623,180 985.041016151378,180" style="fill:#FFFFCC;fill-opacity:1"/>
</svg>
